<svg width="300" height="121" viewBox="0 0 513 121" fill="none" xmlns="http://www.w3.org/2000/svg">
<path d="M0 119.692H36.0235V1.30811H0V119.692Z" fill="white"/>
<path d="M62.3895 119.692H98.413V89.9324H169.973C195.449 89.9324 203.076 69.6568 203.076 51.9973V41.8595C203.076 18.6405 194.8 1.30811 160.562 1.30811H62.3895V119.692ZM98.413 30.7405H151.312C162.184 30.7405 166.079 35.3189 166.079 43.3311V47.9095C166.079 54.9405 162.833 60.5 154.395 60.5H98.413V30.7405Z" fill="white"/>
<path d="M213.997 30.7405H264.625V119.692H300.648V30.7405H351.276V1.30811H213.997V30.7405Z" fill="white"/>
<path d="M364.849 89.1149C364.849 114.786 377.993 121 410.771 121H454.421C502.29 121 513 115.768 513 83.8824C513 49.3811 500.019 45.9473 444.036 46.1108C405.416 46.2743 401.035 45.9473 401.035 35.6459C401.035 29.2689 406.552 26.4892 414.666 26.4892H454.584C471.135 26.4892 472.108 30.0865 472.108 38.7527H508.132V34.9919C508.132 14.2257 504.238 0 462.697 0H412.394C366.959 0 365.012 16.5149 365.012 37.9351C365.012 67.0405 371.178 73.5811 425.375 73.5811C471.784 73.5811 476.003 74.2351 476.003 84.5365C476.003 93.6932 468.214 94.5108 460.587 94.5108H416.451C406.065 94.5108 401.035 93.5297 400.873 80.9392H364.849V89.1149Z" fill="white"/>
</svg>
